<svg width="100" height="40" viewBox="0 0 100 40" fill="none" xmlns="http://www.w3.org/2000/svg">
<g id="&#208;&#161;&#208;&#187;&#208;&#190;&#208;&#185;-3">
<path id="Vector_12" fill-rule="evenodd" clip-rule="evenodd" d="M17.0577 0.432831C7.63858 0.432831 0 7.14823 0 15.4326C0 23.7169 7.63858 30.4323 17.0577 30.4323C18.2577 30.4323 19.4217 30.3011 20.5528 30.1052C20.9946 30.0285 20.474 28.4809 19.6117 27.5961C19.2624 27.2377 18.1998 26.6103 17.0644 26.5963C10.1086 26.5101 4.46774 21.6385 4.46774 15.5202C4.46774 9.40178 10.1079 4.44114 17.0644 4.44114C24.0209 4.44114 29.6611 9.40178 29.6611 15.5202C29.6611 18.1564 28.6109 20.5726 26.8609 22.4717C26.1443 23.2492 26.0222 23.8041 26.1349 24.7663C26.2396 25.6617 27.7519 27.1103 28.0492 26.8893C31.7518 24.1362 34.1123 20.0315 34.1123 15.4326C34.1123 7.14823 26.477 0.432831 17.0577 0.432831Z" fill="#FF421B"/>
<path id="Vector_13" fill-rule="evenodd" clip-rule="evenodd" d="M19.1749 21.4848L21.1232 20.5966C21.5823 20.3567 22.2543 20.6025 22.4939 21.0824L27.1792 29.6248C27.5314 30.1013 27.57 30.6129 27.1395 30.9412L24.8721 32.0186C24.4226 32.2358 23.861 31.867 23.6379 31.4299L18.7655 22.6695C18.5422 22.2324 18.7256 21.702 19.1749 21.4848Z" fill="#FF421B"/>
<path id="Vector_14" fill-rule="evenodd" clip-rule="evenodd" d="M35.9271 28.2376L40.5309 28.1992L43.1331 13.5607L43.3967 12.0773L43.9105 13.3024L49.8433 27.3037C49.8433 27.3037 50.4659 28.7874 52.0567 28.7744C53.919 28.7594 54.3021 27.2603 54.3021 27.2603L60.6412 12.0532L63.58 28.3253L68.1847 28.0933L63.8128 4.17293C63.8128 4.17293 63.7421 3.62453 63.3963 3.12625C63.061 2.64334 62.4642 2.21039 61.6265 2.19097C60.9062 2.17426 60.3416 2.38947 59.958 2.70596C59.3709 3.19006 59.1496 3.94793 59.1496 3.94793L52.423 20.1955L52.0603 21.0245L51.6951 20.1684L45.0426 4.57533C45.0426 4.57533 44.5784 3.17723 43.9959 2.7041C43.5263 2.32263 42.7726 2.10455 42.0961 2.17409C41.4509 2.24026 40.85 2.57717 40.5013 3.09925C40.1718 3.59229 39.877 5.5523 39.877 5.5523L35.9271 28.2376Z" fill="#FF421B"/>
</g>
</svg>
