<svg width="189" height="33" viewBox="0 0 189 33" fill="none" xmlns="http://www.w3.org/2000/svg">
<g id="&#208;&#161;&#208;&#187;&#208;&#190;&#208;&#185;-3">
<path id="Vector" fill-rule="evenodd" clip-rule="evenodd" d="M73.5933 19.4902L73.5975 16.2578L73.6015 13.0254L76.7821 14.6448L79.9629 16.264L76.7781 17.877L73.5933 19.4902Z" fill="#FF421B"/>
<path id="Vector_2" fill-rule="evenodd" clip-rule="evenodd" d="M85.6121 17.1239V21.4704H83.7755V10.767H85.8564C86.8758 10.767 87.6456 10.8294 88.1657 10.9542C88.6911 11.0789 89.1537 11.3147 89.553 11.6612C90.2518 12.2621 90.6013 13.02 90.6013 13.935C90.6013 14.9149 90.2282 15.6913 89.482 16.2644C88.7359 16.8374 87.7297 17.1239 86.4632 17.1239H85.6121ZM85.6121 15.6265H86.2978C87.9845 15.6265 88.8278 15.0558 88.8278 13.9143C88.8278 12.8097 87.9582 12.2574 86.2189 12.2574H85.6121V15.6265Z" fill="white"/>
<path id="Vector_3" fill-rule="evenodd" clip-rule="evenodd" d="M96.6153 16.909L100.383 21.4704H98.1364L94.6604 17.0892H94.3294V21.4704H92.493V10.767H94.6447C96.2526 10.767 97.4138 11.0326 98.1285 11.5642C98.9167 12.1558 99.3109 12.9368 99.3109 13.9073C99.3109 14.6652 99.0639 15.3169 98.5699 15.8623C98.0759 16.4075 97.4244 16.7566 96.6153 16.909ZM94.3294 15.682H94.9126C96.6519 15.682 97.5217 15.0973 97.5217 13.9281C97.5217 12.8328 96.6755 12.2851 94.9836 12.2851H94.3294V15.682Z" fill="white"/>
<path id="Vector_4" fill-rule="evenodd" clip-rule="evenodd" d="M101.328 16.0703C101.328 14.5636 101.956 13.2695 103.212 12.188C104.463 11.1068 105.966 10.5659 107.721 10.5659C109.455 10.5659 110.942 11.1113 112.182 12.2021C113.427 13.2926 114.05 14.603 114.05 16.1325C114.05 17.6716 113.425 18.9772 112.174 20.0494C110.918 21.1261 109.402 21.6645 107.626 21.6645C106.055 21.6645 104.644 21.1862 103.394 20.2296C102.017 19.1713 101.328 17.7849 101.328 16.0703ZM103.181 16.091C103.181 17.2741 103.633 18.247 104.537 19.0094C105.435 19.772 106.473 20.1534 107.65 20.1534C108.927 20.1534 110.004 19.7651 110.881 18.9887C111.759 18.2031 112.198 17.2464 112.198 16.1187C112.198 14.9772 111.764 14.0206 110.897 13.2487C110.035 12.4723 108.969 12.0841 107.697 12.0841C106.431 12.0841 105.362 12.4723 104.489 13.2487C103.617 14.0159 103.181 14.9633 103.181 16.091Z" fill="white"/>
<path id="Vector_5" fill-rule="evenodd" clip-rule="evenodd" d="M116.359 21.4704V10.767H118.913C120.137 10.767 121.104 10.8733 121.814 11.0858C122.576 11.2938 123.267 11.6474 123.887 12.1465C125.143 13.154 125.77 14.478 125.77 16.1187C125.77 17.7639 125.116 19.095 123.808 20.1118C123.151 20.62 122.463 20.9737 121.743 21.1723C121.07 21.3712 120.116 21.4704 118.882 21.4704H116.359ZM118.196 19.9523H119.024C119.849 19.9523 120.534 19.876 121.081 19.7236C121.627 19.5617 122.121 19.3053 122.562 18.9541C123.466 18.2284 123.918 17.2834 123.918 16.1187C123.918 14.9449 123.472 13.9928 122.578 13.2626C121.774 12.611 120.589 12.2851 119.024 12.2851H118.196V19.9523Z" fill="white"/>
<path id="Vector_6" fill-rule="evenodd" clip-rule="evenodd" d="M129.916 10.767V17.214C129.916 18.1337 130.087 18.8062 130.429 19.2314C130.938 19.846 131.656 20.1533 132.58 20.1533C133.511 20.1533 134.23 19.846 134.74 19.2314C135.082 18.82 135.252 18.1476 135.252 17.214V10.767H137.089V17.6577C137.089 18.7853 136.69 19.7143 135.891 20.4445C134.992 21.2579 133.889 21.6645 132.58 21.6645C131.272 21.6645 130.171 21.2579 129.278 20.4445C128.479 19.7143 128.08 18.7853 128.08 17.6577V10.767H129.916Z" fill="white"/>
<path id="Vector_7" fill-rule="evenodd" clip-rule="evenodd" d="M148.998 11.3424V13.2556C147.937 12.4746 146.839 12.0841 145.704 12.0841C144.453 12.0841 143.4 12.4792 142.543 13.2695C141.681 14.0552 141.25 15.0165 141.25 16.1535C141.25 17.2764 141.681 18.2239 142.543 18.9956C143.405 19.7675 144.461 20.1533 145.712 20.1533C146.358 20.1533 146.907 20.0608 147.359 19.876C147.611 19.7837 147.873 19.6588 148.143 19.5016C148.414 19.3445 148.699 19.1551 148.998 18.9333V20.8812C147.947 21.4034 146.844 21.6645 145.688 21.6645C143.949 21.6645 142.464 21.1308 141.235 20.0632C140.01 18.9865 139.398 17.6878 139.398 16.1673C139.398 14.804 139.911 13.5885 140.935 12.5209C142.196 11.2129 143.828 10.559 145.83 10.559C146.923 10.559 147.979 10.8201 148.998 11.3424Z" fill="white"/>
<path id="Vector_8" fill-rule="evenodd" clip-rule="evenodd" d="M154.673 12.2851V21.4704H152.837V12.2851H150.039V10.767H157.464V12.2851H154.673Z" fill="white"/>
<path id="Vector_9" fill-rule="evenodd" clip-rule="evenodd" d="M160.94 10.767V21.4704H159.103V10.767H160.94Z" fill="white"/>
<path id="Vector_10" fill-rule="evenodd" clip-rule="evenodd" d="M163.257 16.0703C163.257 14.5636 163.885 13.2695 165.141 12.188C166.391 11.1068 167.894 10.5659 169.649 10.5659C171.383 10.5659 172.87 11.1113 174.11 12.2021C175.356 13.2926 175.978 14.603 175.978 16.1325C175.978 17.6716 175.353 18.9772 174.102 20.0494C172.847 21.1261 171.331 21.6645 169.554 21.6645C167.983 21.6645 166.573 21.1862 165.322 20.2296C163.945 19.1713 163.257 17.7849 163.257 16.0703ZM165.109 16.091C165.109 17.2741 165.561 18.247 166.465 19.0094C167.363 19.772 168.401 20.1534 169.578 20.1534C170.855 20.1534 171.932 19.7651 172.81 18.9887C173.687 18.2031 174.126 17.2464 174.126 16.1187C174.126 14.9772 173.693 14.0206 172.825 13.2487C171.964 12.4723 170.897 12.0841 169.625 12.0841C168.359 12.0841 167.29 12.4723 166.417 13.2487C165.545 14.0159 165.109 14.9633 165.109 16.091Z" fill="#FF421B"/>
<path id="Vector_11" fill-rule="evenodd" clip-rule="evenodd" d="M178.288 21.4704V10.0391L187.163 18.2053V10.767H189V22.1221L180.124 13.9767V21.4704H178.288Z" fill="#FF421B"/>
<path id="Vector_12" fill-rule="evenodd" clip-rule="evenodd" d="M17.0577 0.432831C7.63858 0.432831 0 7.14823 0 15.4326C0 23.7169 7.63858 30.4323 17.0577 30.4323C18.2577 30.4323 19.4217 30.3011 20.5528 30.1052C20.9946 30.0285 20.474 28.4809 19.6117 27.5961C19.2624 27.2377 18.1998 26.6103 17.0644 26.5963C10.1086 26.5101 4.46774 21.6385 4.46774 15.5202C4.46774 9.40178 10.1079 4.44114 17.0644 4.44114C24.0209 4.44114 29.6611 9.40178 29.6611 15.5202C29.6611 18.1564 28.6109 20.5726 26.8609 22.4717C26.1443 23.2492 26.0222 23.8041 26.1349 24.7663C26.2396 25.6617 27.7519 27.1103 28.0492 26.8893C31.7518 24.1362 34.1123 20.0315 34.1123 15.4326C34.1123 7.14823 26.477 0.432831 17.0577 0.432831Z" fill="#FF421B"/>
<path id="Vector_13" fill-rule="evenodd" clip-rule="evenodd" d="M19.1749 21.4848L21.1232 20.5966C21.5823 20.3567 22.2543 20.6025 22.4939 21.0824L27.1792 29.6248C27.5314 30.1013 27.57 30.6129 27.1395 30.9412L24.8721 32.0186C24.4226 32.2358 23.861 31.867 23.6379 31.4299L18.7655 22.6695C18.5422 22.2324 18.7256 21.702 19.1749 21.4848Z" fill="#FF421B"/>
<path id="Vector_14" fill-rule="evenodd" clip-rule="evenodd" d="M35.9271 28.2376L40.5309 28.1992L43.1331 13.5607L43.3967 12.0773L43.9105 13.3024L49.8433 27.3037C49.8433 27.3037 50.4659 28.7874 52.0567 28.7744C53.919 28.7594 54.3021 27.2603 54.3021 27.2603L60.6412 12.0532L63.58 28.3253L68.1847 28.0933L63.8128 4.17293C63.8128 4.17293 63.7421 3.62453 63.3963 3.12625C63.061 2.64334 62.4642 2.21039 61.6265 2.19097C60.9062 2.17426 60.3416 2.38947 59.958 2.70596C59.3709 3.19006 59.1496 3.94793 59.1496 3.94793L52.423 20.1955L52.0603 21.0245L51.6951 20.1684L45.0426 4.57533C45.0426 4.57533 44.5784 3.17723 43.9959 2.7041C43.5263 2.32263 42.7726 2.10455 42.0961 2.17409C41.4509 2.24026 40.85 2.57717 40.5013 3.09925C40.1718 3.59229 39.877 5.5523 39.877 5.5523L35.9271 28.2376Z" fill="white"/>
</g>
</svg>
